<svg viewBox="0 0 20 20" fill="none" xmlns="http://www.w3.org/2000/svg">
<g id="layers-01">
<path id="Vector" d="M7.20248 2.62132L5.7818 3.27802C3.59393 4.28932 2.5 4.79497 2.5 5.625C2.5 6.45502 3.59393 6.96067 5.78181 7.97198L7.20248 8.62867C8.57933 9.26508 9.26783 9.58333 10 9.58333C10.7322 9.58333 11.4207 9.26508 12.7975 8.62867L14.2182 7.97198C16.4061 6.96067 17.5 6.45502 17.5 5.625C17.5 4.79497 16.4061 4.28932 14.2182 3.27802L12.7975 2.62132C11.4207 1.98488 10.7322 1.66667 10 1.66667C9.26783 1.66667 8.57933 1.98488 7.20248 2.62132Z" stroke="#D19E00" stroke-width="1.25" stroke-linecap="round" stroke-linejoin="round"/>
<path id="Vector_2" d="M17.3233 9.24769C17.4411 9.41327 17.5 9.58594 17.5 9.77577C17.5 10.5939 16.4061 11.0924 14.2182 12.0894L12.7975 12.7367C11.4207 13.364 10.7322 13.6778 10 13.6778C9.26783 13.6778 8.57933 13.364 7.20248 12.7367L5.78181 12.0894C3.59393 11.0924 2.5 10.5939 2.5 9.77577C2.5 9.58594 2.55889 9.41327 2.67667 9.24769" stroke="#D19E00" stroke-width="1.25" stroke-linecap="round" stroke-linejoin="round"/>
<path id="Vector_3" d="M16.9806 13.5551C17.3268 13.8309 17.5 14.1058 17.5 14.4313C17.5 15.2496 16.4061 15.748 14.2182 16.7449L12.7975 17.3923C11.4207 18.0197 10.7322 18.3333 10 18.3333C9.26783 18.3333 8.57933 18.0197 7.20248 17.3923L5.78181 16.7449C3.59393 15.748 2.5 15.2496 2.5 14.4313C2.5 14.1058 2.67315 13.8309 3.01945 13.5551" stroke="#D19E00" stroke-width="1.25" stroke-linecap="round" stroke-linejoin="round"/>
</g>
</svg>
